HIERARCHY
ROOT Hips
{
	OFFSET -3.958830 18.904000 13.208200
	CHANNELS 6 Xposition Yposition Zposition Zrotation Yrotation Xrotation 
	JOINT LHipJoint
	{
		OFFSET 0.000000 0.000000 0.000000
		CHANNELS 3 Zrotation Yrotation Xrotation
		JOINT LeftUpLeg
		{
			OFFSET 1.800000 -1.400000 0.085000
			CHANNELS 3 Zrotation Yrotation Xrotation
			JOINT LeftLeg
			{
				OFFSET 2.215000 -6.000000 0.000000
				CHANNELS 3 Zrotation Yrotation Xrotation
				JOINT LeftFoot
				{
					OFFSET 2.500000 -6.900000 0.000000
					CHANNELS 3 Zrotation Yrotation Xrotation
					JOINT LeftToeBase
					{
						OFFSET 0.200000 -0.500000 1.950000
						CHANNELS 3 Zrotation Yrotation Xrotation
						End Site
						{
							OFFSET 0.000000 0.000000 0.000000
						}
					}
				}
			}
		}
	}
	JOINT RHipJoint
	{
		OFFSET 0.000000 0.000000 0.000000
		CHANNELS 3 Zrotation Yrotation Xrotation
		JOINT RightUpLeg
		{
			OFFSET -1.800000 -1.400000 0.085000
			CHANNELS 3 Zrotation Yrotation Xrotation
			JOINT RightLeg
			{
				OFFSET -2.215000 -6.000000 0.000000
				CHANNELS 3 Zrotation Yrotation Xrotation
				JOINT RightFoot
				{
					OFFSET -2.500000 -6.900000 0.000000
					CHANNELS 3 Zrotation Yrotation Xrotation
					JOINT RightToeBase
					{
						OFFSET -0.200000 -0.500000 1.950000
						CHANNELS 3 Zrotation Yrotation Xrotation
						End Site
						{
							OFFSET 0.000000 0.000000 0.000000
						}
					}
				}
			}
		}
	}
	JOINT LowerBack
	{
		OFFSET 0.000000 0.000000 0.000000
		CHANNELS 3 Zrotation Yrotation Xrotation
		JOINT Spine
		{
			OFFSET -0.087000 1.940000 -0.288900
			CHANNELS 3 Zrotation Yrotation Xrotation
			JOINT Spine1
			{
				OFFSET 0.000000 1.950000 0.060000
				CHANNELS 3 Zrotation Yrotation Xrotation
				JOINT Neck
				{
					OFFSET 0.000000 0.000000 0.000000
					CHANNELS 3 Zrotation Yrotation Xrotation
					JOINT Neck1
					{
						OFFSET 0.000000 1.600000 0.340000
						CHANNELS 3 Zrotation Yrotation Xrotation
						JOINT Head
						{
							OFFSET 0.000000 1.667000 -0.240000
							CHANNELS 3 Zrotation Yrotation Xrotation
							End Site
							{
								OFFSET 0.000000 0.000000 0.000000
							}
						}
					}
				}
				JOINT LeftShoulder
				{
					OFFSET 0.000000 0.000000 0.000000
					CHANNELS 3 Zrotation Yrotation Xrotation
					JOINT LeftArm
					{
						OFFSET 2.700000 1.550000 -0.730000
						CHANNELS 3 Zrotation Yrotation Xrotation
						JOINT LeftForeArm
						{
							OFFSET 5.450000 0.000000 0.000000
							CHANNELS 3 Zrotation Yrotation Xrotation
							JOINT LeftHand
							{
								OFFSET 3.450000 0.000000 0.000000
								CHANNELS 3 Zrotation Yrotation Xrotation
								JOINT LeftHandIndex1
								{
									OFFSET 0.750000 0.000000 0.000000
									CHANNELS 3 Zrotation Yrotation Xrotation
									End Site
									{
										OFFSET 0.000000 0.000000 0.000000
									}
								}
							}
						}
					}
				}
				JOINT RightShoulder
				{
					OFFSET 0.000000 0.000000 0.000000
					CHANNELS 3 Zrotation Yrotation Xrotation
					JOINT RightArm
					{
						OFFSET -2.700000 1.550000 -0.730000
						CHANNELS 3 Zrotation Yrotation Xrotation
						JOINT RightForeArm
						{
							OFFSET -5.450000 0.000000 0.000000
							CHANNELS 3 Zrotation Yrotation Xrotation
							JOINT RightHand
							{
								OFFSET -3.450000 0.000000 0.000000
								CHANNELS 3 Zrotation Yrotation Xrotation
								JOINT RightHandIndex1
								{
									OFFSET -0.750000 0.000000 0.000000
									CHANNELS 3 Zrotation Yrotation Xrotation
									End Site
									{
										OFFSET 0.000000 0.000000 0.000000
									}
								}
							}
						}
					}
				}
			}
		}
	}
}
MOTION
Frames: 14
Frame Time: 0.016667
-2.925720 18.313360 2.608730 -8.802685 7.454097 -15.099228 -15.024889 13.848360 2.984988 26.127768 3.718408 -11.964474 -5.781649 10.009539 21.002354 -0.188730 6.236432 2.211154 -0.555770 -0.547190 -0.563430 18.089264 -11.543113 3.342534 2.009693 -1.053440 8.181149 -0.800390 -6.016359 27.840642 -0.842075 -5.576788 2.488332 -0.367480 0.739170 0.070650 -3.692965 -0.950029 -9.187712 -25.293166 0.638916 -4.325371 -17.076893 8.612321 6.210261 2.960562 -10.905382 -35.847577 -30.584846 27.330167 37.293173 28.165990 11.364440 -5.720510 20.155320 -28.571961 0.748508 7.231968 -28.563472 -4.612904 77.097807 -29.290059 -23.168100 -4.229071 2.337582 0.811290 0.060680 0.096920 -0.053630 -17.097469 49.551427 18.017325 -10.211849 1.016403 -2.200823 -10.729398 -16.980069 2.056158 4.087334 0.513917 -0.521040 0.563640 0.601140 0.082860 
-2.929620 18.286730 2.525670 -9.157346 11.200097 -18.952778 -15.301022 14.672762 2.842538 25.722271 4.522029 -11.462760 -3.216526 9.304860 21.118508 -0.443897 6.247964 2.159443 -0.417550 -0.463110 -0.391490 17.902979 -10.608920 3.190801 2.023586 -0.892492 10.822022 -0.263022 -6.266326 28.715783 -0.926520 -5.682154 2.368074 -0.225620 0.576900 0.007550 -3.247623 -3.645873 -8.716504 -23.640597 -2.240929 2.488481 -23.500250 9.982323 8.625501 5.834482 -10.434100 -34.178312 -37.374633 30.218003 29.239264 21.203570 16.143300 -13.769370 24.704017 -25.262766 0.224838 9.364747 -26.378953 -7.711736 72.998943 -30.336596 -22.239360 -4.379290 2.325049 0.988600 -0.065890 0.138430 -0.097920 -29.102129 49.358586 11.324081 -12.518160 1.860062 1.278199 -7.879252 -1.474757 1.129034 2.936309 -0.050846 -0.631380 0.630510 0.594540 -0.062300 
-2.971590 18.259990 2.350920 -9.065925 14.276464 -27.802503 -16.061861 15.610807 2.392070 27.346444 6.445679 -7.216810 0.165194 9.041931 22.315722 -0.185126 6.587874 2.126740 -0.130440 -0.131290 0.008370 17.410560 -9.145265 2.940743 1.496763 -1.480867 18.752919 1.540582 -7.447903 29.109259 -1.200189 -6.329356 2.158678 -0.096440 0.282840 0.064700 -1.359461 -7.072964 -7.469953 -30.490649 -3.231569 9.729221 -23.160956 15.400409 17.309497 8.431024 -11.253820 -27.534789 -37.893016 27.116495 25.701293 -3.565860 19.692520 -25.391290 27.534178 -23.038121 -0.411284 14.535729 -22.647896 -15.477770 68.453268 -29.429703 -19.693065 -4.747251 2.428187 0.886280 -0.099440 0.311500 -0.062300 -41.796401 48.211654 2.760637 -15.039375 -1.343187 -11.334345 -14.825490 9.419125 -0.275363 3.225844 -1.339116 -0.451410 0.563080 0.319200 -0.104540 
-2.980440 18.220840 2.310010 -10.867679 18.117034 -29.748433 -16.140017 15.434727 2.193530 27.442132 7.088284 -9.045970 2.216392 8.477259 22.675262 -0.193803 6.444464 2.112610 0.028110 0.076570 0.164870 17.420357 -9.065013 2.956588 2.837888 -1.227794 18.718730 2.659349 -7.783665 30.353590 -1.227593 -6.738312 1.952357 0.053260 0.196050 0.192080 -1.091061 -7.382505 -7.022019 -29.937770 -0.126311 13.507014 -19.612463 16.095133 22.338513 5.840836 -11.095926 -22.912995 -34.411353 25.120640 26.382313 -14.649110 20.579490 -22.703100 29.038889 -24.303891 0.386674 13.375996 -18.971654 -18.408748 66.393899 -30.266134 -19.914800 -4.963969 2.712432 0.627420 0.056860 0.289780 -0.052590 -41.557637 43.695552 2.313191 -16.581127 2.293919 -18.235527 -25.834975 25.353090 -5.370217 3.736244 -2.644712 -0.303090 0.370400 0.200220 -0.103900 
-2.947080 18.220760 2.322520 -13.058343 21.375423 -27.010098 -15.707420 14.395062 2.004305 26.258827 7.043511 -12.672419 2.611079 7.892961 21.336762 -0.358918 5.975398 2.275913 0.185670 0.290260 0.167110 17.867143 -10.031712 2.975652 3.409589 0.332172 12.988755 4.741124 -7.939140 32.101710 -1.125858 -6.959546 1.818841 0.285790 0.351410 0.265970 -2.522191 -4.270367 -7.135481 -20.329090 3.457250 15.365695 -19.704153 16.925202 24.759764 0.810348 -10.714948 -18.945618 -26.686738 19.916728 29.041946 -8.956310 16.057320 -14.146890 32.820747 -27.383959 2.488796 6.768160 -16.379397 -18.920171 67.557944 -30.694765 -23.352163 -4.983609 3.112760 0.335740 0.254110 0.129070 0.044030 -35.978273 40.741160 1.177622 -13.501650 11.496107 -17.176116 -39.114293 38.121719 -14.448149 3.573630 -2.843850 -0.249740 0.317100 0.117890 -0.019510 
-2.945960 18.239200 2.350110 -12.799997 26.650455 -23.865051 -15.586942 14.246800 1.892618 22.027307 5.840126 -16.545763 3.902497 6.746205 20.546810 -0.646252 5.270959 2.482910 0.221120 0.299490 0.097730 17.926990 -10.469833 2.935301 1.882720 1.444159 8.254457 7.764237 -8.754775 32.230944 -1.009856 -6.941707 1.779453 0.371050 0.417310 0.244820 -2.958931 -3.297684 -7.110622 -20.989592 6.844785 15.142325 -13.636301 17.853322 24.696059 -2.746864 -9.634228 -15.924266 -22.586991 19.195615 34.993496 -3.389440 13.907940 -11.396140 32.174102 -29.619965 3.937639 2.966097 -18.243074 -16.530152 65.568110 -31.827235 -24.941913 -4.703546 3.282125 0.343250 0.266910 0.026840 0.059740 -28.222795 41.036308 1.787911 -7.344175 22.564344 -16.035382 -52.198185 49.412401 -26.182226 2.923760 -2.242116 -0.314720 0.326820 0.171110 -0.030780 
-2.937940 18.223360 2.346230 -13.790075 30.598844 -23.990684 -15.504754 13.742947 2.046876 22.537381 5.426614 -17.857058 1.511753 7.149629 20.051592 -0.766551 5.255762 2.330386 0.410390 0.425110 0.286260 18.026579 -10.641245 2.944869 1.258464 1.954661 6.437687 10.823189 -9.857199 32.330723 -1.130077 -7.048317 1.559978 0.448880 0.200040 0.296320 -3.392561 -2.147649 -7.365062 -19.310946 8.640520 19.186630 -9.778722 17.833808 25.886273 -4.267250 -9.503716 -13.574506 -20.172782 18.695372 38.086217 -1.534830 12.902330 -15.859920 29.873390 -30.436777 5.101063 1.251510 -15.623718 -17.195889 67.707770 -38.495682 -30.442963 -4.338123 3.428553 0.480800 0.085170 0.142440 0.001220 -22.782672 42.882202 1.877798 -0.641232 29.331909 -16.972084 -63.570592 57.793000 -38.560203 3.311945 -2.096612 -0.254220 0.219620 0.146220 -0.107280 
-2.931670 18.204260 2.362270 -14.336887 34.447375 -20.700215 -15.485973 13.243504 2.285617 21.188042 4.880908 -22.920208 0.259570 7.317990 20.340562 -0.797916 5.002243 2.357092 0.598530 0.615360 0.451390 18.072576 -10.729424 2.934609 0.503805 3.450167 1.007787 14.212900 -10.568064 32.437040 -1.164311 -6.979441 1.525841 0.526480 0.057120 0.318180 -3.664690 -1.142503 -7.584877 -17.330503 10.470921 21.747164 -8.548074 17.619344 24.515422 -3.551366 -8.802704 -11.362657 -16.833655 15.710107 40.467804 -3.357160 11.308310 -18.368650 25.312023 -28.583211 5.176029 -0.167198 -16.628000 -15.411464 74.746438 -47.615092 -40.926550 -3.665060 3.056374 0.504060 0.006550 0.232220 0.040490 -19.428340 41.308167 1.983390 9.635101 39.192777 -13.060771 -64.723911 58.802575 -41.950012 2.875270 -1.518008 -0.169840 0.149270 0.004680 -0.118090 
-2.937820 18.193140 2.360220 -13.846105 37.969422 -17.155025 -15.462675 12.884689 2.558183 18.968626 3.806722 -27.453255 -0.411842 7.266013 20.933868 -0.911766 4.796557 2.423282 0.642760 0.657180 0.496980 18.089416 -10.749273 2.977632 -1.021750 4.900614 -4.349741 16.932727 -11.044604 32.418877 -1.122597 -6.851159 1.545454 0.571740 0.020460 0.242180 -3.879816 -0.565511 -7.786420 -15.379071 12.036912 25.450350 -6.652084 17.718945 24.166183 -3.888841 -8.393169 -10.577870 -15.822285 12.919547 41.523266 -3.000540 8.739970 -20.838050 22.216444 -25.037629 5.266838 -6.857992 -19.150844 -14.128017 83.769821 -52.865365 -54.474619 -3.361509 2.559256 0.567450 -0.056010 0.239670 0.038090 -16.022032 38.440784 4.540580 20.523951 45.824192 -12.655902 -65.100464 68.680112 -48.339393 1.989051 -0.122272 -0.217090 0.223460 -0.015870 -0.144400 
-2.942330 18.146180 2.326490 -13.805347 42.268482 -15.326338 -15.525109 12.617666 2.991505 17.604940 2.224650 -31.783437 -1.170649 7.397969 22.768395 -0.846422 4.734088 2.451888 0.647300 0.642910 0.563660 18.036743 -10.524360 3.002270 -3.084588 5.466552 -7.986697 20.326503 -11.977226 31.553683 -1.133397 -6.753552 1.586465 0.504540 -0.095670 0.118450 -3.750745 -0.683054 -7.936202 -14.391063 12.534126 30.330649 -4.140018 16.553082 23.154563 -3.241153 -7.489177 -11.224062 -15.334093 9.930230 45.068797 -1.911280 6.523530 -23.008270 18.439781 -21.795621 6.566427 -15.369270 -19.137683 -13.152739 93.454481 -58.275134 -71.392093 -3.183919 2.138844 0.672790 -0.211820 0.297760 0.026740 -13.644033 35.978364 7.696211 33.464904 44.800676 -16.879133 -40.420146 89.797620 -50.433883 1.804650 0.047894 -0.234560 0.240150 -0.099610 -0.162780 
-2.941310 18.066900 2.312000 -13.140106 45.155274 -12.710071 -15.628598 12.495036 3.517241 16.743951 0.935558 -36.160302 -2.296788 7.836796 24.630777 -0.818971 4.954642 2.353729 0.621700 0.544480 0.626330 17.979632 -9.978990 3.002360 -5.288168 6.379657 -11.545198 23.264757 -12.807272 31.319439 -1.179097 -6.697274 1.587705 0.394210 -0.202070 0.072390 -3.241286 -1.681656 -7.993788 -14.746562 13.451057 33.149025 -0.725031 15.293765 21.558371 -2.979253 -6.731094 -12.188108 -16.546371 8.490747 49.725251 -1.038900 5.078580 -26.857090 11.926842 -17.251170 7.153327 -23.891964 -19.513957 -10.086222 107.894955 -64.474270 -98.309104 -3.316105 2.227359 0.854690 -0.358690 0.381140 -0.012700 -7.859666 31.158158 8.962361 46.944716 44.699395 -5.914210 98.640420 83.746701 66.345179 5.192793 3.883414 -0.264360 0.250620 -0.105940 -0.220280 
-2.931110 17.984590 2.285520 -11.453341 46.004727 -10.973651 -15.653122 12.385341 3.888923 16.543321 0.323839 -38.438807 -3.831383 8.731276 27.398748 -0.735310 5.475798 2.133887 0.494420 0.364550 0.577730 17.948339 -9.755552 3.053574 -7.946644 7.195257 -13.183142 25.095687 -13.289502 31.270333 -1.211913 -6.699664 1.571638 0.241480 -0.263790 0.054880 -3.094652 -1.959075 -8.254664 -13.927431 14.539946 38.180433 0.812966 15.417560 18.757010 -2.322262 -7.000787 -13.499566 -19.338740 8.385783 53.752833 1.068280 3.813180 -30.441810 4.163058 -17.047079 7.404734 -29.685165 -14.536468 -12.770385 132.193871 -71.177679 -137.717710 -3.104113 3.192693 1.002860 -0.473740 0.448840 -0.083840 -0.758693 31.653782 10.482843 52.004122 34.918365 -11.380553 112.863329 71.063562 66.857797 3.509976 0.091731 -0.286420 0.264920 -0.018490 -0.257390 
-2.909770 17.869690 2.268190 -9.906712 47.002082 -10.144944 -15.648135 12.108091 4.249961 16.925286 -0.127441 -40.384069 -6.077092 10.225182 31.050925 -0.696332 6.496802 1.767862 0.278310 0.055960 0.490620 17.969788 -9.597528 3.071238 -10.602302 7.796245 -13.270642 27.267245 -14.034133 31.097374 -1.227688 -6.911182 1.491971 0.080710 -0.203920 0.068770 -3.157331 -1.854028 -8.532020 -12.072337 14.236648 43.631813 -0.163480 14.971064 15.185844 -1.462788 -6.901125 -13.691586 -19.862106 7.808680 54.739850 1.700560 2.728810 -32.619950 -2.727994 -16.075275 6.677196 -33.646242 -8.174289 -16.572441 179.170162 -74.945135 161.286619 -3.056132 2.976342 1.131450 -0.481580 0.438140 -0.182170 4.695221 30.256306 10.866363 56.040457 27.759860 -13.289038 115.987760 65.384831 64.481084 3.119887 -0.611791 -0.393040 0.335570 0.161090 -0.313230 
-2.877070 17.747330 2.252610 -8.692186 47.486412 -9.721936 -15.582558 11.539386 4.566859 17.751078 -0.013016 -42.459772 -8.197707 12.247624 35.526749 -0.463617 7.600830 1.367562 0.246680 0.019620 0.450540 18.083331 -9.581696 3.115979 -13.014718 8.813548 -13.617279 29.193774 -15.016744 32.217623 -1.330855 -7.362678 1.326136 0.018640 -0.222970 0.093620 -3.606537 -0.919539 -8.870529 -8.217138 12.389074 48.405167 -3.649072 13.761722 12.188643 -0.649057 -6.937018 -13.733543 -19.141044 8.225019 55.100602 2.294230 2.638120 -32.332160 -8.126304 -14.265072 6.496630 -38.802673 -2.138236 -19.120659 -163.006912 -74.113348 137.370395 -3.077877 2.915667 1.135730 -0.511280 0.460040 -0.180760 8.569741 28.043179 10.340831 60.214040 24.459217 -14.155981 115.527187 64.309386 63.252517 3.111872 -0.766028 -0.351950 0.280120 0.166300 -0.288850 
